<svg xmlns:inkscape="http://www.inkscape.org/namespaces/inkscape" xmlns:sodipodi="http://sodipodi.sourceforge.net/DTD/sodipodi-0.dtd" xmlns:xlink="http://www.w3.org/1999/xlink" xmlns="http://www.w3.org/2000/svg" xmlns:svg="http://www.w3.org/2000/svg" id="svg1" width="143.90024" height="160.76086" viewBox="0 0 143.90024 160.76087" sodipodi:docname="logoSerena1.1.png" xml:space="preserve" inkscape:version="0.0.2 (f4327f4, 2025-05-13)" inkscape:export-filename="soloLogoSerena 50% borde.svg" inkscape:export-xdpi="96" inkscape:export-ydpi="96"><defs id="defs1"><linearGradient id="linearGradient26" inkscape:collect="always"><stop style="stop-color:#374f9f;stop-opacity:1;" offset="0.38426965" id="stop26"></stop><stop style="stop-color:#380f53;stop-opacity:1;" offset="0.89999998" id="stop27"></stop></linearGradient><linearGradient id="swatch18" inkscape:swatch="solid"><stop style="stop-color:#000000;stop-opacity:1;" offset="0" id="stop18"></stop></linearGradient><linearGradient inkscape:collect="always" xlink:href="#linearGradient26" id="linearGradient27" x1="833.42883" y1="942.92255" x2="532.74969" y2="422.13107" gradientUnits="userSpaceOnUse"></linearGradient><linearGradient inkscape:collect="always" xlink:href="#linearGradient26" id="linearGradient29" gradientUnits="userSpaceOnUse" x1="833.42883" y1="942.92255" x2="532.74969" y2="422.13107"></linearGradient><linearGradient inkscape:collect="always" xlink:href="#linearGradient26" id="linearGradient30" gradientUnits="userSpaceOnUse" x1="833.42883" y1="942.92255" x2="532.74969" y2="422.13107"></linearGradient></defs><g id="g6" style="display:inline;opacity:1;fill:url(#linearGradient27);fill-opacity:1;fill-rule:nonzero;stroke:#000000;stroke-width:0.5;stroke-dasharray:none;stroke-opacity:0" transform="translate(-382.41004,-602.14631)"><path style="display:none;fill:url(#linearGradient29);fill-opacity:1;fill-rule:nonzero;stroke:#000000;stroke-width:0.5;stroke-dasharray:none;stroke-opacity:0" d="m 578.26913,723.21304 c -6.77536,-3.52607 -8.90686,-6.44206 -6.48167,-8.86724 1.07767,-1.07767 3.30849,-0.47697 8.28262,2.23029 16.68055,9.0787 39.29298,0.37333 32.60822,-12.55356 -2.56893,-4.96777 -6.69519,-7.10036 -19.18493,-9.91545 -24.61085,-5.54708 -30.60858,-21.5297 -13.01004,-34.66891 7.73317,-5.77365 36.89299,-3.27289 36.82955,3.15852 -0.0442,4.48548 -2.07229,5.83754 -5.47852,3.65244 -9.21833,-5.91358 -22.61818,-5.7007 -29.2177,0.46418 -9.04157,8.44609 -3.08475,16.55934 15.53574,21.15987 21.43803,5.29665 27.89476,13.52754 21.92238,27.94616 -4.47493,10.80342 -27.44709,14.86625 -41.80565,7.3937 z m 59.06417,-31.87975 c 0,-35.33333 0,-35.33333 23.99999,-35.33333 24,0 24,0 24,3.33333 0,3.33334 0,3.33334 -20,3.33334 -20,0 -20,0 -20,12.66666 0,12.66667 0,12.66667 16.66667,12.66667 15.77778,0 16.66667,0.14222 16.66667,2.66667 0,2.52444 -0.88889,2.66666 -16.66667,2.66666 -16.66667,0 -16.66667,0 -16.66667,13.33333 0,13.33334 0,13.33334 20,13.33334 20,0 20,0 20,3.33333 0,3.33333 0,3.33333 -24,3.33333 -23.99999,0 -23.99999,0 -23.99999,-35.33333 z m 66.66666,0 c 0,-35.33333 0,-35.33333 15.09133,-35.33333 18.73239,0 27.05226,2.2003 32.71741,8.65255 9.07303,10.33361 6.01626,27.06453 -6.14208,33.61811 -5.51716,2.97385 -5.56317,2.69389 2.37678,14.46039 8.96545,13.28621 9.2851,14.25886 4.50519,13.70854 -3.14264,-0.36181 -5.1812,-2.50385 -11.5215,-12.10626 -7.70328,-11.66667 -7.70328,-11.66667 -19.03187,-11.66667 -11.3286,0 -11.3286,0 -11.3286,12 0,11.91111 -0.0247,12 -3.33333,12 -3.33333,0 -3.33333,0 -3.33333,-35.33333 z m 40.15686,-0.5098 c 14.18586,-14.18586 3.04335,-28.13217 -22.4902,-28.14943 -11,-0.007 -11,-0.007 -11,16.65923 0,16.66667 0,16.66667 14.15687,16.66667 14.15686,0 14.15686,0 19.33333,-5.17647 z m 30.5098,0.5098 c 0,-35.33333 0,-35.33333 24,-35.33333 24,0 24,0 24,3.33333 0,3.33334 0,3.33334 -20,3.33334 -20,0 -20,0 -20,12.66666 0,12.66667 0,12.66667 16.66667,12.66667 15.77777,0 16.66666,0.14222 16.66666,2.66667 0,2.52444 -0.88889,2.66666 -16.66666,2.66666 -16.66667,0 -16.66667,0 -16.66667,13.33333 0,13.33334 0,13.33334 20,13.33334 20,0 20,0 20,3.33333 0,3.33333 0,3.33333 -24,3.33333 -24,0 -24,0 -24,-35.33333 z m 138.66666,34.79472 c 0,-0.29624 2.33628,-5.54624 5.19174,-11.66667 14.83606,-31.79984 21.56197,-46.40393 24.00759,-52.12805 5.29273,-12.38797 8.42558,-9.9803 19.51792,15 3.09351,6.96667 9.29765,20.58018 13.78698,30.25226 9.49558,20.4578 9.17145,19.08246 4.49576,19.07602 -3.27675,-0.005 -4.08516,-1.00054 -7.60214,-9.36661 -3.93547,-9.36156 -3.93547,-9.36156 -23.99999,-8.99495 -20.06453,0.36661 -20.06453,0.36661 -24.39848,9.36661 -3.73764,7.76169 -10.99938,13.34785 -10.99938,8.46139 z m 52,-25.31888 c 0,-3.66587 -16.07352,-35.93576 -17.28529,-34.70269 -1.39146,1.41592 -16.04805,33.79733 -16.04805,35.45563 0,0.60751 7.5,1.10455 16.66667,1.10455 13.35765,0 16.66667,-0.36878 16.66667,-1.85749 z m -125.33333,-10.1425 c 0,-46.14232 -0.56777,-46.27491 41.33333,9.65251 4.76667,6.3623 9.11667,11.59325 9.66667,11.62432 0.55,0.0311 1,-12.5435 1,-27.9435 0,-28 0,-28 4,-28 4,0 4,0 4,34.66667 0,47.92889 3.15169,48.64386 -42.61201,-9.66667 -11.00336,-14.0201 -10.72132,-14.46731 -10.72132,17 0,27.33333 0,27.33333 -3.33334,27.33333 -3.33333,0 -3.33333,0 -3.33333,-34.66666 z" id="path2"></path><path style="fill:url(#linearGradient30);fill-opacity:1;fill-rule:nonzero;stroke:#000000;stroke-width:0.5;stroke-dasharray:none;stroke-opacity:1" d="m 412.97927,761.21589 c -28.9131,-6.81185 -40.31048,-40.85464 -20.13824,-60.15083 12.72467,-12.17206 28.4934,-12.34211 38.96102,-0.42015 5.70418,6.4967 5.4207,7.81207 -1.46874,6.8152 -25.53951,-3.69545 -34.33333,0.54092 -34.33333,16.53985 0,28.7417 34.37008,35.24464 65.33333,12.36128 30.89824,-22.83531 32.01116,-32.02134 6.41902,-52.98218 -22.77437,-18.65298 -25.38354,-21.09963 -27.24027,-25.5434 -9.60155,-22.97976 24.09468,-36.16828 35.46492,-13.88077 3.23964,6.35021 4.5637,7.27336 6.71473,4.68153 4.38114,-5.27895 18.92575,-9.38078 26.26019,-7.40583 17.14372,4.61633 22.37804,27.88592 11.22441,49.89905 -5.82367,11.49375 -5.82367,11.49375 -2.69732,17.8487 9.8459,20.01384 1.77226,32.00901 -25.37663,37.70257 -13.60763,2.85374 -16.88654,2.57481 -8.64044,-0.73504 26.51401,-10.64228 33.41713,-22.11008 23.9356,-39.763 -3.48249,-6.48376 -3.48249,-6.48376 0.44743,-12.66667 13.36932,-21.03385 1.42009,-40.52873 -20.30456,-33.1264 -6.00444,2.04592 -6.00444,2.04592 -9.67705,-3.25366 -8.00487,-11.55104 -15.39424,-14.51098 -22.4232,-8.982 -6.63584,5.21975 -4.59976,9.93688 7.89317,18.28665 43.10906,28.81238 45.10169,53.07241 6.66666,81.16587 -8,5.84748 -8,5.84748 -8.41382,1.12039 -0.52839,-6.03591 -0.46551,-6.05187 -9.64734,2.44889 -11.36567,10.5226 -23.56595,13.66663 -38.95954,10.03995 z m 3.02071,-22.15757 c -17.0099,-6.21806 -8.62164,-19.32069 13.10256,-20.46647 30.74449,-1.62152 36.66956,-13.82745 13.90833,-28.65186 -23.91965,-15.57891 -30.34455,-20.28336 -35.25863,-25.81716 -30.64704,-34.51194 28.27401,-81.56338 66.14524,-52.82033 8.67077,6.58084 15.79197,21.48417 12.05251,25.22363 -2.85904,2.85905 -4.26032,2.69711 -5.31116,-0.61378 -5.34929,-16.85411 -35.77062,-20.5617 -51.93868,-6.32999 -14.8458,13.06779 -10.36554,21.24791 33.09089,60.41769 17.11418,15.426 10.66715,27.24607 -24.44688,44.8212 -9.75378,4.88192 -16.12197,6.14608 -21.34418,4.23707 z" id="path3"></path></g><image width="1365.3333" height="1365.3333" preserveAspectRatio="none" id="image1" x="-351.75177" y="-587.75092" style="display:none"></image><image width="1365.3333" height="1365.3333" preserveAspectRatio="none" id="image1-7" x="-351.75177" y="-587.75092" style="display:none"></image></svg>